<?xml version="1.0" standalone="no"?>
<!DOCTYPE svg PUBLIC "-//W3C//DTD SVG 20010904//EN"
 "http://www.w3.org/TR/2001/REC-SVG-20010904/DTD/svg10.dtd">
<svg version="1.0" xmlns="http://www.w3.org/2000/svg"
 width="450.000000pt" height="450.000000pt" viewBox="0 0 450.000000 450.000000"
 preserveAspectRatio="xMidYMid meet">

<g transform="translate(0.000000,450.000000) scale(0.100000,-0.100000)"
fill="#000000" stroke="none">
<path d="M2250 4300 c-52 -13 -90 -60 -90 -114 0 -58 24 -86 107 -125 90 -43
103 -56 103 -102 0 -31 -5 -42 -27 -56 -34 -23 -98 -23 -142 0 -43 22 -48 21
-61 -3 -17 -31 55 -64 141 -65 57 0 71 4 102 28 43 33 62 86 47 136 -13 47
-25 58 -104 98 -89 44 -106 59 -106 93 0 56 70 78 155 50 31 -10 39 -10 46 1
14 23 11 29 -23 43 -47 19 -107 26 -148 16z"/>
<path d="M1854 4272 c-8 -5 1 -53 32 -166 25 -87 43 -160 41 -162 -1 -2 -32
14 -67 35 -36 21 -117 68 -180 106 -63 37 -129 76 -147 87 l-31 19 24 -88 c13
-48 38 -137 54 -198 16 -60 34 -123 38 -140 9 -32 28 -41 51 -26 13 8 8 33
-28 162 -23 83 -40 154 -37 156 2 3 95 -48 206 -112 110 -65 203 -116 205
-113 2 2 -9 53 -26 113 -34 126 -79 292 -86 318 -5 18 -29 22 -49 9z"/>
<path d="M2627 4263 c-4 -3 -7 -14 -7 -24 0 -13 15 -22 55 -34 30 -8 55 -20
55 -25 0 -5 -14 -62 -31 -127 -17 -65 -39 -149 -50 -188 -10 -38 -17 -70 -16
-71 1 -1 14 -5 28 -9 26 -6 26 -6 63 137 70 268 63 251 100 243 94 -20 96 -20
96 9 0 14 -2 26 -5 26 -2 0 -63 16 -134 35 -138 37 -144 39 -154 28z"/>
<path d="M1247 4045 c-18 -13 -12 -25 90 -214 59 -110 113 -200 119 -201 5 0
18 6 28 13 16 12 9 28 -94 215 -62 111 -115 202 -118 202 -4 0 -15 -7 -25 -15z"/>
<path d="M3126 4021 c-98 -40 -150 -116 -150 -221 0 -138 96 -234 234 -234 97
0 169 44 216 134 25 47 24 152 0 200 -59 115 -187 166 -300 121z m157 -55 c44
-18 95 -78 103 -121 27 -147 -115 -268 -249 -211 -67 27 -114 113 -104 188 15
114 144 189 250 144z"/>
<path d="M900 3808 c0 -12 149 -480 154 -485 2 -2 11 6 21 17 18 20 18 23 2
74 -9 29 -17 57 -17 63 0 6 30 37 66 68 l66 58 63 -31 63 -31 21 23 22 23
-231 117 c-126 64 -230 111 -230 104z m166 -135 c41 -21 74 -40 74 -44 0 -14
-99 -88 -105 -79 -6 9 -55 150 -55 157 0 8 17 1 86 -34z"/>
<path d="M3699 3667 c-14 -12 -92 -78 -172 -145 -81 -68 -147 -127 -147 -131
0 -4 6 -16 14 -26 13 -18 17 -17 77 33 35 29 66 52 70 52 3 0 18 -13 33 -29
l27 -29 -30 -97 c-28 -90 -29 -98 -14 -121 8 -13 18 -24 22 -24 4 0 21 44 38
98 30 94 32 97 59 94 115 -13 205 86 171 187 -12 34 -103 159 -117 160 -3 0
-17 -10 -31 -22z m96 -156 c13 -50 -39 -111 -94 -111 -20 0 -111 74 -111 90 0
4 30 33 67 65 l67 57 32 -39 c18 -21 35 -49 39 -62z"/>
<path d="M2040 3625 c-30 -9 -91 -35 -135 -59 -62 -33 -96 -44 -145 -49 -101
-9 -192 -60 -287 -160 -43 -46 -100 -98 -126 -116 -59 -40 -102 -105 -111
-166 -4 -31 -17 -60 -40 -88 -48 -60 -66 -100 -72 -160 -3 -29 -12 -81 -21
-117 -19 -80 -12 -149 22 -226 21 -48 24 -62 15 -93 -25 -91 1 -184 71 -252
40 -39 49 -54 49 -83 0 -43 48 -135 153 -291 114 -170 189 -343 222 -515 30
-156 50 -208 91 -244 39 -34 41 -43 46 -206 0 -14 5 -83 11 -155 l10 -130 61
-60 c34 -33 92 -82 130 -109 38 -27 79 -61 90 -74 35 -40 75 -54 166 -60 120
-6 154 6 250 88 44 39 85 70 90 70 6 0 44 32 85 71 53 51 76 80 81 104 6 33
11 110 18 296 4 111 14 141 51 171 32 25 61 100 79 204 15 86 49 197 95 313
27 66 91 176 213 363 99 151 118 187 118 219 0 10 19 56 43 100 l42 81 4 142
c6 258 6 259 -13 296 -13 24 -20 59 -21 110 -2 87 -28 155 -79 210 -18 20 -39
59 -49 91 -21 69 -73 131 -144 171 -32 18 -64 46 -78 68 -30 48 -75 80 -122
87 -22 4 -55 20 -77 40 -50 42 -133 73 -195 73 -34 0 -66 9 -102 28 -44 22
-64 26 -114 24 -83 -4 -105 -4 -220 2 -73 4 -115 2 -155 -9z m270 -87 c58 -39
65 -134 17 -207 -24 -36 -82 -71 -182 -112 -48 -19 -11 -22 51 -4 69 20 120
51 161 99 37 42 48 86 40 166 -6 52 -4 58 14 63 27 7 81 -9 106 -33 49 -45 42
-99 -27 -194 -27 -38 -52 -82 -55 -97 -4 -16 1 -61 10 -101 14 -65 14 -78 1
-121 -8 -26 -26 -64 -41 -83 -15 -19 -24 -38 -21 -41 11 -12 74 67 91 114 9
27 20 55 24 63 11 21 119 61 169 62 64 2 87 -25 87 -100 0 -50 -4 -63 -32 -97
-18 -21 -31 -41 -28 -43 2 -2 23 10 47 27 75 54 128 50 188 -13 19 -21 25 -39
27 -89 5 -82 -15 -121 -94 -186 l-62 -51 -93 0 c-72 0 -103 -5 -138 -21 -82
-37 -145 -115 -179 -221 -14 -43 -39 -64 -93 -79 -21 -5 -38 -14 -38 -20 0 -6
8 -8 18 -6 9 3 37 8 62 11 44 6 46 5 95 -44 28 -28 65 -58 83 -65 27 -12 32
-19 32 -46 0 -19 -10 -46 -26 -66 -18 -24 -21 -33 -10 -33 18 0 58 47 75 88 9
22 25 34 59 47 50 19 117 63 108 72 -3 3 -27 -5 -53 -17 -71 -34 -129 -37
-182 -8 -56 30 -81 75 -81 146 0 63 16 106 60 156 46 51 98 76 162 76 63 0 95
-19 100 -58 4 -36 20 -34 30 4 8 30 34 57 126 131 58 47 85 109 80 183 -6 85
-41 134 -124 171 -50 23 -65 35 -70 57 -13 51 -44 102 -74 117 -38 20 -82 19
-155 -4 -65 -20 -86 -16 -106 21 -17 32 5 90 58 150 49 55 73 102 73 142 0 47
64 60 137 27 67 -31 78 -57 78 -186 0 -98 2 -113 23 -142 38 -53 125 -67 178
-29 27 20 14 27 -30 15 -73 -20 -132 19 -137 91 -7 91 1 149 20 159 44 24 100
-19 118 -90 7 -26 16 -35 39 -40 121 -25 185 -136 139 -245 -16 -40 -71 -68
-117 -62 -39 6 -46 -9 -12 -23 45 -16 104 -1 142 37 40 40 51 42 80 12 29 -31
42 -71 42 -125 0 -43 -1 -45 -22 -38 -43 14 -96 17 -102 6 -4 -7 1 -11 14 -11
43 0 101 -40 121 -83 23 -51 25 -120 4 -141 -14 -14 -20 -13 -58 4 -23 10 -62
25 -87 32 -36 10 -49 21 -65 50 -11 21 -23 38 -26 38 -3 0 -5 -39 -5 -87 1
-141 -39 -213 -156 -275 -38 -20 -57 -23 -161 -23 -64 0 -117 -1 -117 -2 0 -1
15 -10 33 -20 22 -11 57 -17 112 -17 73 -1 87 3 155 37 86 43 96 44 110 18 36
-69 -42 -221 -140 -271 -20 -10 -69 -22 -108 -26 -70 -6 -72 -7 -56 -26 46
-50 -70 -151 -194 -170 -84 -13 -140 3 -188 53 -24 25 -29 39 -29 77 0 26 4
61 8 77 l8 30 -20 -24 c-12 -13 -26 -44 -32 -68 -16 -62 -49 -78 -159 -78 -99
0 -162 23 -222 83 -43 41 -46 38 -18 -18 11 -22 20 -41 20 -44 0 -3 -14 -21
-31 -41 -35 -40 -26 -44 31 -15 47 24 90 26 130 5 29 -15 33 -23 45 -81 9 -47
61 -104 93 -103 25 0 26 1 7 12 -48 30 -75 65 -75 101 0 43 13 51 106 65 68
10 70 9 139 -27 63 -33 78 -37 145 -36 104 0 169 31 260 123 67 68 108 91 167
91 69 0 72 -164 4 -224 -24 -22 -27 -36 -8 -36 16 0 59 44 78 80 9 16 14 64
14 135 1 102 4 117 41 215 35 92 44 108 84 138 l45 35 -57 -7 -58 -7 0 34 c0
47 29 159 45 176 17 18 89 8 134 -20 103 -62 88 -284 -23 -344 -41 -22 -44
-30 -16 -38 54 -14 32 -68 -136 -327 -62 -97 -128 -211 -147 -255 -41 -96 -84
-225 -93 -280 -9 -55 -43 -184 -54 -205 -28 -53 -128 -77 -385 -92 -175 -10
-219 -9 -355 6 -190 21 -258 37 -287 71 -24 27 -31 49 -82 259 -40 165 -87
276 -171 401 -149 223 -192 322 -155 358 20 21 68 22 85 2 15 -19 30 -19 30
-2 0 28 -47 58 -101 66 -67 9 -91 22 -125 67 -36 46 -44 123 -19 170 34 64
137 78 219 30 l46 -27 0 91 c0 165 58 240 187 240 70 0 100 -14 130 -59 21
-31 23 -46 23 -152 0 -70 5 -130 12 -146 32 -75 73 -108 150 -121 43 -7 45
-10 74 -80 19 -48 77 -102 108 -102 15 0 11 8 -21 38 -35 32 -63 87 -63 125 0
5 31 39 69 75 52 52 73 80 90 125 11 32 21 68 21 81 0 32 16 42 79 49 38 5 73
18 113 42 54 34 60 35 99 25 71 -19 185 19 219 73 19 31 5 30 -46 -2 -82 -53
-153 -50 -206 7 -54 58 -43 149 25 207 45 39 44 56 -2 29 -65 -38 -97 -114
-88 -209 5 -50 2 -67 -13 -93 -22 -35 -74 -56 -130 -50 -32 3 -36 7 -55 58
-44 119 -77 141 -37 24 24 -71 25 -79 14 -147 -16 -89 -56 -163 -111 -202 -36
-25 -51 -30 -106 -30 -76 0 -109 19 -142 85 -20 37 -23 60 -23 147 0 116 -12
157 -56 192 l-28 22 51 44 c31 27 63 69 84 110 35 66 54 84 73 65 6 -6 4 -33
-8 -84 -19 -80 -17 -94 21 -201 14 -38 29 -97 32 -130 7 -59 8 -59 20 -31 13
33 10 53 -34 196 -32 104 -27 150 19 196 23 23 44 33 81 38 90 14 165 67 181
130 9 36 -11 33 -26 -4 -29 -69 -113 -107 -209 -95 -70 9 -98 23 -144 74 -39
43 -54 103 -43 164 9 48 60 92 131 112 130 38 155 47 180 66 39 32 20 40 -29
13 -28 -16 -68 -27 -109 -31 -64 -6 -67 -5 -96 25 -17 17 -31 36 -31 43 0 22
69 77 122 98 39 14 78 20 144 20 78 1 96 -2 124 -21z m-441 -116 c35 -26 45
-45 37 -76 -9 -35 -57 -80 -121 -113 -27 -14 -69 -41 -93 -60 -35 -28 -59 -38
-119 -49 -53 -9 -93 -23 -133 -48 -32 -20 -67 -36 -79 -36 -39 0 -46 47 -14
96 25 40 90 75 215 118 140 49 178 66 178 78 0 11 -3 11 -81 -13 -38 -12 -76
-18 -85 -15 -38 15 77 117 153 135 50 13 112 5 142 -17z m-31 -234 c7 -7 12
-20 12 -30 0 -10 11 -51 25 -92 26 -78 26 -114 -3 -171 -56 -111 -145 -155
-253 -125 -47 13 -88 52 -95 90 -7 30 -24 42 -24 16 0 -29 21 -69 50 -96 l30
-28 -54 -55 c-57 -57 -86 -122 -86 -195 0 -31 -2 -34 -22 -26 -13 4 -56 8 -95
9 -78 1 -108 18 -139 77 -14 27 -20 148 -7 148 3 0 21 -18 39 -39 34 -39 89
-68 99 -51 3 4 -10 18 -29 30 -54 33 -76 77 -76 150 0 73 20 121 65 156 56 42
66 35 59 -44 -5 -50 -3 -75 7 -93 13 -22 14 -19 19 51 9 122 65 188 178 210
71 13 82 7 82 -46 0 -47 26 -124 42 -124 5 0 6 10 2 23 -13 39 -8 131 8 162
19 35 51 66 93 88 36 20 57 21 73 5z m84 -2209 c156 -38 387 -36 737 7 48 6
53 5 49 -12 -8 -45 -242 -94 -453 -94 -146 0 -360 21 -394 39 -27 15 -48 81
-25 81 2 0 40 -9 86 -21z m734 -157 c-8 -13 -37 -18 -291 -46 -183 -20 -240
-23 -340 -16 -130 9 -155 15 -155 36 0 17 40 18 125 4 80 -14 184 -14 297 -1
51 6 140 16 197 22 58 6 116 15 130 19 28 8 47 -2 37 -18z m-11 -121 c8 -14
-3 -18 -103 -36 -140 -24 -562 -21 -562 4 0 3 116 6 257 6 208 0 270 4 318 17
72 20 82 21 90 9z m-48 -98 c6 -16 -39 -24 -187 -32 -156 -9 -332 -1 -337 15
-2 7 67 11 214 12 120 1 234 6 253 11 40 10 52 9 57 -6z"/>
<path d="M1680 2510 c-1 -3 -2 -34 -3 -70 -2 -57 -7 -72 -36 -113 -57 -79
-123 -100 -231 -72 l-25 7 28 -26 c33 -31 93 -35 169 -11 43 12 49 12 68 -3
25 -21 36 -93 21 -148 -13 -49 -72 -120 -115 -138 l-31 -13 30 -8 c41 -10 53
-21 60 -55 3 -16 13 -34 22 -42 14 -11 15 -7 8 41 -7 48 -4 60 30 133 45 95
51 168 21 235 -18 40 -18 45 -2 101 19 70 20 117 1 157 -7 17 -14 28 -15 25z"/>
<path d="M606 3440 c-38 -12 -69 -42 -118 -114 -47 -68 -57 -54 102 -161 63
-43 143 -98 177 -122 l61 -44 16 22 c8 12 13 26 11 30 -3 4 -31 24 -62 46 -31
21 -61 41 -66 44 -5 4 3 24 19 44 l28 37 102 -4 c102 -3 102 -3 118 23 l15 26
-101 7 c-56 4 -105 9 -110 12 -4 3 -8 17 -8 31 0 40 -37 90 -84 112 -46 23
-56 24 -100 11z m98 -79 c33 -29 38 -59 17 -104 -40 -85 -40 -85 -120 -30 -38
26 -70 53 -71 58 0 17 61 86 84 95 26 10 65 2 90 -19z"/>
<path d="M4035 3214 c-16 -7 -109 -46 -205 -85 -96 -39 -176 -72 -177 -73 -7
-6 11 -46 21 -46 7 0 67 23 135 51 68 28 125 49 127 47 2 -2 -28 -55 -66 -117
-39 -62 -70 -116 -70 -120 0 -4 44 -17 98 -29 142 -32 175 -43 166 -52 -5 -4
-66 -31 -136 -60 -126 -51 -127 -52 -115 -77 13 -29 -3 -34 227 62 102 42 194
80 205 84 14 6 -26 19 -135 45 -85 20 -170 39 -188 42 -18 4 -35 10 -37 14 -3
5 40 78 95 165 55 86 100 158 100 160 0 8 -13 5 -45 -11z"/>
<path d="M337 2969 c-30 -30 -65 -104 -82 -172 -5 -20 -1 -25 42 -39 26 -9
125 -43 219 -75 l171 -60 26 77 c46 131 32 204 -43 234 -53 21 -61 21 -105 -9
-20 -15 -38 -25 -39 -23 -1 2 -7 15 -14 30 -15 35 -51 58 -101 65 -36 5 -44 2
-74 -28z m133 -65 c23 -23 24 -26 12 -71 -7 -27 -17 -52 -22 -57 -10 -10 -140
31 -140 45 0 5 10 30 22 55 32 68 76 78 128 28z m195 -39 c14 -13 25 -32 25
-43 0 -28 -30 -122 -38 -122 -5 0 -36 9 -70 21 -67 23 -71 29 -47 87 34 81 85
103 130 57z"/>
</g>
</svg>
